<?xml version="1.0" encoding="utf-8"?>
<!-- Generator: Adobe Illustrator 26.0.2, SVG Export Plug-In . SVG Version: 6.00 Build 0)  -->
<svg version="1.1" id="레이어_1" xmlns="http://www.w3.org/2000/svg" xmlns:xlink="http://www.w3.org/1999/xlink" x="0px"
	 y="0px" viewBox="0 0 454 166" style="enable-background:new 0 0 454 166;" xml:space="preserve">
<style type="text/css">
	.st0{fill:#005A9C;}
	.st1{fill:#252627;}
	.st2{fill:#040000;}
</style>
<path class="st0" d="M65.7,135V69.3l49.8-28.7l-10.6-6.1L55,63.2v65.7l-7.2-4.1V59l49.8-28.7L87,24.2L37.3,52.9v65.7l-7.2-4.1V48.8
	L87,15.9l42.7,24.7L72.8,73.4v57.5l14.2,8.2l15.5-8.9v-22.5l-19.1,11V79.6l56.9-32.9l3.6,2.1v65.7l-7.2,4.1V87.8l-12.1,7v31
	l-7.2,3.9V68.1l-27,15.6v22.5l19.1-11v39.1L87,147.4L65.7,135z M124.8,64v22.5l12.1-7V57L124.8,64z"/>
<g id="그룹_55_00000099627665396190700930000017753609373810780308_">
	<g>
		<g id="그룹_54_00000101814571722212091480000001319038102226291895_">
			<path id="패스_171_00000128460018894866790170000011027437957646089881_" class="st0" d="M355.7,93.4h28.9
				c5.9,0,11.2-3.5,13.6-8.9l14.1-29.9l14.4,30.5h-25c-1.3,3.3-3.5,6.2-6.4,8.2h44.4L417,45.5c-1.2-2.6-4.4-3.8-7-2.5
				c-0.8,0.4-1.5,1-2.1,1.7c0,0.1-0.1,0.1-0.1,0.2c-0.1,0.2-0.3,0.4-0.4,0.6l-11.3,23.9c-2.8-3.5-7.1-5.6-11.6-5.6h-11.9
				c-3.6,0-6.5-2.7-6.7-6.2c-0.2-3.6,2.6-6.7,6.2-6.9c0.1,0,0.2,0,0.3,0h28.8L402,49l3.1-6.6h-32.4c-8.1-0.1-14.8,6.3-15.1,14.4
				c-0.2,8.2,6.2,15,14.4,15.2c0.1,0,0.3,0,0.4,0h11.9c3.6,0,6.5,2.7,6.7,6.2c0.2,3.6-2.6,6.7-6.2,6.9c-0.1,0-0.2,0-0.3,0h-23.1
				l-9.1-39.4c-0.4-2.2-2.6-3.7-4.8-3.3c-1.2,0.2-2.2,1-2.8,2l-0.2,0.3l-10.9,33.3l-10.9-33.3l-0.2-0.3c-1.1-2-3.6-2.7-5.6-1.6
				c-1.1,0.6-1.8,1.6-2,2.8l-11.3,47.6h8l7.7-34.3l7.4,22.5l0.2,0.3c1.4,2.5,4,4,6.8,4l0,0c2.8,0,5.4-1.5,6.8-4l0.2-0.3l7.4-22.5
				L355.7,93.4z"/>
			<path id="패스_174_00000092452533559753895780000003046018137454457534_" class="st1" d="M301.6,93.4L301.6,72l0-0.1
				c-0.6-8.6-7.1-14.8-15.3-14.8c-5.9-0.1-11.3,3.4-13.8,8.8c-4.1-7.9-13.8-11.1-21.7-7c-2.5,1.3-4.7,3.3-6.2,5.7
				c-3.2-5.2-8.9-8.3-15-8.2c-3.5,0-6.9,1-9.8,3c-0.2-13.9-9.9-23.9-23.2-23.9c-13.5,0-23.2,10.3-23.2,24.4s9.8,24.4,23.2,24.4
				c5.5,0.1,10.8-1.8,15-5.3v24.8h8.1V90c2.8,2.1,6.3,3.3,9.9,3.3c5.8,0.1,11.3-2.8,14.6-7.6c2.5,4.4,7,7.3,12.1,7.6l1.1,0.1h10.6
				v-6.7l-9.3-0.1c-5.1-0.1-8.6-3.2-9.6-8.4h22l0,15.1h7.5V72.5c0.3-4.8,3.7-8.4,7.9-8.4c4.1,0,7.5,3.6,7.9,8.4v20.9L301.6,93.4z
				 M196.5,76.6c-8.8,0-15-6.9-15-16.8s6.2-16.8,15-16.8s15,6.9,15,16.8S205.3,76.6,196.5,76.6 M229.4,85.7c-5.6,0-9.8-4.7-9.8-10.9
				c0-6.5,3.9-10.9,9.8-10.9c5.6,0,9.8,4.7,9.8,10.9S235,85.7,229.4,85.7 M248.8,71.8c1.2-4.9,4.8-8.2,9.1-8.2
				c4.7,0,8.2,3.2,9.2,8.2H248.8z"/>
		</g>
	</g>
</g>
<g>
	<path class="st2" d="M190.6,124.6l-1.9-4.8v4.8h-2.2v-9.2h2.2l2.8,7l2.8-7h2.2v9.2h-2.2v-4.8l-1.9,4.8H190.6z"/>
	<path class="st2" d="M201.5,116.8v-1.4h1.3v1.4H201.5z M201.5,124.5v-6.4h1.3v6.4H201.5z"/>
	<path class="st2" d="M210.8,117.9c1.7,0,2.7,0.8,2.9,2.3h-1.4c-0.1-0.8-0.6-1.2-1.5-1.2c-1.2,0-1.7,0.9-1.7,2.3s0.4,2.3,1.7,2.3
		c0.9,0,1.5-0.5,1.5-1.2h1.4c-0.2,1.5-1.2,2.3-2.9,2.3c-2,0-3-1.2-3-3.4C207.8,119.1,208.8,117.9,210.8,117.9z"/>
	<path class="st2" d="M219.8,121.2v3.3h-1.3v-6.4h1.3v1.1c0.3-0.8,0.8-1.2,1.9-1.2c0.2,0,0.4,0,0.6,0l0,1c-0.1,0-0.3,0-0.6,0
		C220.5,119,219.8,119.7,219.8,121.2z"/>
	<path class="st2" d="M232.4,121.3c0,2.1-1,3.4-3,3.4c-2,0-3-1.2-3-3.4c0-2.1,1-3.4,3-3.4C231.4,117.9,232.4,119.1,232.4,121.3z
		 M231.1,121.3c0-1.4-0.4-2.3-1.7-2.3s-1.7,0.9-1.7,2.3s0.4,2.3,1.7,2.3S231.1,122.7,231.1,121.3z"/>
	<path class="st2" d="M240.6,124.7c-2.2,0-3.6-1.2-3.6-2.8v-0.2h2.3v0.2c0,0.6,0.4,1,1.3,1c0.8,0,1.2-0.4,1.2-1c0-0.6-0.4-1-1.3-1.1
		l-0.9-0.2c-1.7-0.3-2.7-1.2-2.7-2.8c0-1.5,1.2-2.7,3.4-2.7c2.2,0,3.4,1.2,3.4,2.6v0.1h-2.3v-0.1c0-0.5-0.4-0.9-1.1-0.9
		c-0.7,0-1.1,0.4-1.1,0.9c0,0.6,0.4,0.9,1.3,1.1l0.8,0.2c1.8,0.3,2.7,1.3,2.7,2.8C244.2,123.5,242.9,124.7,240.6,124.7z"/>
	<path class="st2" d="M250,121.7c0,1.2,0.5,1.9,1.7,1.9c0.8,0,1.4-0.4,1.5-1h1.4c-0.2,1.3-1.2,2.1-2.8,2.1c-2,0-3-1.2-3-3.4
		c0-2.1,1-3.4,3-3.4c2,0,3,1.2,3,3.4c0,0.1,0,0.3,0,0.4H250z M250,120.7h3.3c-0.1-1.1-0.6-1.7-1.6-1.7
		C250.6,119,250.1,119.6,250,120.7z"/>
	<path class="st2" d="M260.8,121.2v3.3h-1.3v-6.4h1.3v1.1c0.3-0.8,0.8-1.2,1.9-1.2c0.2,0,0.4,0,0.6,0l0,1c-0.1,0-0.3,0-0.6,0
		C261.5,119,260.8,119.7,260.8,121.2z"/>
	<path class="st2" d="M273.8,118.1l-2.5,6.4h-1.5l-2.5-6.4h1.4l1.9,5l1.9-5H273.8z"/>
	<path class="st2" d="M278.4,116.8v-1.4h1.3v1.4H278.4z M278.4,124.5v-6.4h1.3v6.4H278.4z"/>
	<path class="st2" d="M287.6,117.9c1.7,0,2.7,0.8,2.9,2.3h-1.4c-0.1-0.8-0.6-1.2-1.5-1.2c-1.2,0-1.7,0.9-1.7,2.3s0.4,2.3,1.7,2.3
		c0.9,0,1.5-0.5,1.5-1.2h1.4c-0.2,1.5-1.2,2.3-2.9,2.3c-2,0-3-1.2-3-3.4C284.6,119.1,285.6,117.9,287.6,117.9z"/>
	<path class="st2" d="M296.4,121.7c0,1.2,0.5,1.9,1.7,1.9c0.8,0,1.4-0.4,1.5-1h1.4c-0.2,1.3-1.2,2.1-2.8,2.1c-2,0-3-1.2-3-3.4
		c0-2.1,1-3.4,3-3.4c2,0,3,1.2,3,3.4c0,0.1,0,0.3,0,0.4H296.4z M296.4,120.7h3.3c-0.1-1.1-0.6-1.7-1.6-1.7
		C296.9,119,296.5,119.6,296.4,120.7z"/>
	<path class="st2" d="M312.4,124.6l3.1-9.2h2.4l3.1,9.2h-2.3l-0.5-1.6h-3l-0.5,1.6H312.4z M317.7,121.3l-1-3.6l-1,3.6H317.7z"/>
	<path class="st2" d="M326.7,121.2v3.3h-1.3v-6.4h1.3v1.1c0.3-0.8,0.8-1.2,1.9-1.2c0.2,0,0.4,0,0.6,0l0,1c-0.1,0-0.3,0-0.6,0
		C327.4,119,326.7,119.7,326.7,121.2z"/>
	<path class="st2" d="M336.4,117.9c1.7,0,2.7,0.8,2.9,2.3h-1.4c-0.1-0.8-0.6-1.2-1.5-1.2c-1.2,0-1.7,0.9-1.7,2.3s0.4,2.3,1.7,2.3
		c0.9,0,1.5-0.5,1.5-1.2h1.4c-0.2,1.5-1.2,2.3-2.9,2.3c-2,0-3-1.2-3-3.4C333.4,119.1,334.3,117.9,336.4,117.9z"/>
	<path class="st2" d="M349.8,124.5h-1.3v-3.9c0-1.1-0.5-1.6-1.3-1.6c-1,0-1.7,0.7-1.7,2.1v3.5h-1.3v-9h1.3v3.7c0.3-0.7,1-1.2,2-1.2
		c1.5,0,2.4,0.9,2.4,2.6V124.5z"/>
	<path class="st2" d="M354.9,116.8v-1.4h1.3v1.4H354.9z M354.9,124.5v-6.4h1.3v6.4H354.9z"/>
	<path class="st2" d="M363.2,122.5c0,0.8,0.3,1,1.2,1h0.7v1c-0.2,0-0.6,0-0.9,0c-1.6,0-2.3-0.4-2.3-1.8v-3.7h-1v-1h1v-1.8h1.3v1.8
		h1.8v1h-1.8V122.5z"/>
	<path class="st2" d="M370.9,121.7c0,1.2,0.5,1.9,1.7,1.9c0.8,0,1.4-0.4,1.5-1h1.4c-0.2,1.3-1.2,2.1-2.8,2.1c-2,0-3-1.2-3-3.4
		c0-2.1,1-3.4,3-3.4c2,0,3,1.2,3,3.4c0,0.1,0,0.3,0,0.4H370.9z M371,120.7h3.3c-0.1-1.1-0.6-1.7-1.6-1.7
		C371.5,119,371.1,119.6,371,120.7z"/>
	<path class="st2" d="M383.2,117.9c1.7,0,2.7,0.8,2.9,2.3h-1.4c-0.1-0.8-0.6-1.2-1.5-1.2c-1.2,0-1.7,0.9-1.7,2.3s0.4,2.3,1.7,2.3
		c0.9,0,1.5-0.5,1.5-1.2h1.4c-0.2,1.5-1.2,2.3-2.9,2.3c-2,0-3-1.2-3-3.4C380.2,119.1,381.2,117.9,383.2,117.9z"/>
	<path class="st2" d="M392.7,122.5c0,0.8,0.3,1,1.2,1h0.7v1c-0.2,0-0.6,0-0.9,0c-1.6,0-2.3-0.4-2.3-1.8v-3.7h-1v-1h1v-1.8h1.3v1.8
		h1.8v1h-1.8V122.5z"/>
	<path class="st2" d="M399.3,118.1h1.3v3.9c0,1.1,0.5,1.6,1.3,1.6c1,0,1.7-0.7,1.7-2.1v-3.5h1.3v6.4h-1.3v-1.1c-0.3,0.7-1,1.2-2,1.2
		c-1.5,0-2.3-0.9-2.3-2.6V118.1z"/>
	<path class="st2" d="M411.4,121.2v3.3h-1.3v-6.4h1.3v1.1c0.3-0.8,0.8-1.2,1.9-1.2c0.2,0,0.4,0,0.6,0l0,1c-0.1,0-0.3,0-0.6,0
		C412.1,119,411.4,119.7,411.4,121.2z"/>
	<path class="st2" d="M419.4,121.7c0,1.2,0.5,1.9,1.7,1.9c0.8,0,1.4-0.4,1.5-1h1.4c-0.2,1.3-1.2,2.1-2.8,2.1c-2,0-3-1.2-3-3.4
		c0-2.1,1-3.4,3-3.4c2,0,3,1.2,3,3.4c0,0.1,0,0.3,0,0.4H419.4z M419.4,120.7h3.3c-0.1-1.1-0.6-1.7-1.6-1.7
		C420,119,419.5,119.6,419.4,120.7z"/>
</g>
<g>
	<path class="st2" d="M425.3,42.6h4.5v0.6h-1.9v5.9h-0.7v-5.9h-1.9V42.6z"/>
	<path class="st2" d="M433.4,49.1l-2.1-5v5h-0.7v-6.5h0.8l2.4,5.7l2.4-5.7h0.8v6.5h-0.7v-5l-2.1,5H433.4z"/>
</g>
</svg>
