<?xml version="1.0" standalone="no"?>
<!DOCTYPE svg PUBLIC "-//W3C//DTD SVG 20010904//EN"
 "http://www.w3.org/TR/2001/REC-SVG-20010904/DTD/svg10.dtd">
<svg version="1.0" xmlns="http://www.w3.org/2000/svg"
 width="630.000000pt" height="203.000000pt" viewBox="0 0 630.000000 203.000000"
 preserveAspectRatio="xMidYMid meet">

<g transform="translate(0.000000,203.000000) scale(0.100000,-0.100000)"
fill="#000000" stroke="none">
<path d="M438 1776 l-437 -251 -1 -505 0 -506 55 -31 55 -32 0 507 1 507 381
219 381 219 64 -34 c121 -65 147 -38 -250 -266 -194 -112 -367 -212 -385 -223
l-32 -20 2 -502 3 -502 45 -27 c25 -15 48 -28 53 -28 4 -1 7 225 7 502 l1 502
378 218 c208 119 383 217 390 217 14 0 161 -83 161 -90 -1 -3 -170 -103 -378
-222 l-377 -217 -2 -508 -3 -508 163 -93 164 -93 169 99 169 98 3 297 c1 163
0 297 -3 297 -3 0 -59 -31 -124 -69 -65 -38 -128 -74 -139 -80 l-22 -12 0 175
0 174 200 116 c110 64 204 116 210 116 7 0 10 -160 10 -465 0 -256 3 -465 7
-465 3 0 26 11 50 25 l43 26 0 238 0 237 87 50 c48 27 91 50 95 52 4 2 8 -100
8 -227 0 -127 3 -231 6 -231 4 0 28 12 55 27 l49 26 0 507 0 508 -29 12 c-28
11 -47 2 -465 -240 l-436 -252 0 -299 0 -298 146 84 c80 47 148 85 150 85 2 0
4 -78 4 -173 l0 -173 -120 -70 c-67 -38 -122 -69 -124 -69 -2 0 -51 27 -109
60 l-107 60 3 448 2 448 428 247 c235 136 427 250 427 253 0 4 -512 304 -624
365 -18 10 -74 -19 -458 -240z m1202 -554 l0 -178 -32 -17 c-18 -9 -61 -32
-95 -52 l-63 -36 0 174 0 175 93 55 c50 31 93 56 95 56 1 1 2 -79 2 -177z"/>
<path d="M2460 1715 c-312 -88 -350 -566 -54 -702 106 -48 246 -41 338 18 l46
29 0 -190 0 -190 60 0 60 0 0 105 0 105 41 -20 c95 -49 215 -31 296 43 l45 41
20 -27 c11 -15 41 -40 66 -55 43 -24 58 -27 165 -31 l117 -3 0 51 0 51 -87 0
c-102 0 -145 16 -180 69 -41 61 -40 61 142 61 l165 0 0 -115 0 -115 60 0 60 0
0 175 c0 196 6 221 63 255 41 25 73 25 115 0 54 -33 62 -67 62 -260 l0 -170
61 0 61 0 -7 188 c-6 172 -9 191 -32 240 -30 63 -84 106 -151 121 -89 18 -198
-21 -239 -86 -9 -16 -18 -30 -20 -32 -2 -3 -19 14 -38 36 -48 56 -108 84 -183
84 -72 1 -140 -26 -183 -72 l-29 -31 -46 42 c-25 23 -62 49 -82 58 -50 21
-167 21 -209 -1 -18 -10 -36 -17 -41 -17 -5 0 -12 25 -15 55 -21 205 -240 347
-447 290z m195 -124 c89 -40 142 -147 133 -266 -14 -166 -158 -266 -311 -216
-49 17 -121 98 -137 156 -28 99 2 225 67 287 61 58 169 75 248 39z m898 -305
c38 -16 72 -51 86 -88 l11 -28 -140 0 c-155 0 -157 1 -117 61 23 35 78 69 110
69 10 0 32 -6 50 -14z m-387 -39 c68 -74 68 -177 0 -245 -98 -99 -249 -25
-249 123 0 55 18 98 55 131 33 30 46 34 107 30 48 -3 58 -7 87 -39z"/>
<path d="M4406 1607 c-13 -10 -40 -106 -102 -368 -46 -195 -86 -364 -89 -376
-5 -22 -3 -23 54 -23 l59 0 15 68 c8 37 35 154 58 259 24 106 46 189 50 185 4
-4 32 -84 63 -178 31 -95 65 -179 75 -188 30 -27 73 -35 116 -21 20 8 42 18
48 24 6 6 39 93 73 194 34 100 64 175 68 167 3 -8 28 -118 56 -245 28 -126 53
-238 56 -247 5 -17 25 -18 241 -18 150 0 250 4 274 12 83 24 107 57 234 328
66 137 122 247 126 243 7 -7 219 -453 219 -460 0 -2 -87 -3 -193 -3 l-194 0
-11 -24 c-6 -13 -25 -40 -42 -60 l-32 -36 331 0 c182 0 331 2 331 5 0 3 -77
168 -170 367 -105 223 -180 372 -196 386 -29 25 -61 28 -90 8 -11 -8 -60 -99
-109 -203 -48 -103 -89 -190 -91 -192 -1 -1 -20 11 -41 28 -54 43 -89 51 -228
51 -143 0 -176 13 -196 78 -9 32 -8 44 6 71 28 55 57 61 310 61 l225 0 25 56
c14 31 25 58 25 60 0 2 -118 4 -261 4 -302 0 -323 -4 -389 -70 -89 -88 -93
-212 -12 -302 59 -66 96 -78 245 -78 74 0 138 -5 150 -11 88 -45 71 -176 -24
-194 -19 -3 -110 -5 -204 -3 l-170 3 -67 290 c-37 160 -70 300 -73 312 -13 54
-70 70 -102 30 -10 -13 -54 -135 -98 -270 -44 -136 -82 -247 -85 -247 -3 0
-43 114 -89 253 -82 250 -100 287 -140 287 -10 0 -25 -6 -35 -13z"/>
<path d="M6092 1613 c12 -3 18 -18 21 -51 l3 -47 2 47 c2 35 6 48 20 51 9 3
-1 5 -23 5 -22 0 -32 -2 -23 -5z"/>
<path d="M6161 1568 c1 -47 2 -49 8 -18 l6 35 14 -32 c7 -18 17 -33 21 -33 5
0 14 15 21 33 l12 32 7 -35 c7 -32 7 -31 9 18 0 28 -2 52 -6 52 -5 0 -16 -19
-26 -43 l-19 -42 -16 43 c-9 23 -20 42 -24 42 -4 0 -7 -24 -7 -52z"/>
<path d="M2400 431 c0 -64 2 -71 20 -71 16 0 20 7 20 33 l1 32 14 -32 c17 -40
40 -42 53 -5 l10 27 1 -27 c1 -21 6 -28 21 -28 18 0 20 7 20 70 0 61 -2 70
-18 70 -13 0 -24 -15 -36 -50 -10 -28 -21 -48 -25 -45 -3 4 -13 25 -22 48 -11
28 -23 43 -38 45 -20 3 -21 -1 -21 -67z"/>
<path d="M2640 490 c0 -5 5 -10 10 -10 6 0 10 5 10 10 0 6 -4 10 -10 10 -5 0
-10 -4 -10 -10z"/>
<path d="M3196 484 c-19 -18 -19 -20 -6 -45 6 -10 18 -19 28 -19 9 0 24 -5 32
-10 12 -7 12 -12 2 -22 -9 -9 -15 -9 -24 0 -7 7 -20 12 -30 12 -16 0 -17 -3
-8 -20 7 -14 21 -20 44 -20 63 0 76 54 18 79 -42 19 -41 34 3 25 19 -3 35 -4
35 -1 0 14 -34 37 -55 37 -13 0 -31 -7 -39 -16z"/>
<path d="M3820 490 c0 -5 5 -10 10 -10 6 0 10 5 10 10 0 6 -4 10 -10 10 -5 0
-10 -4 -10 -10z"/>
<path d="M4385 488 c-3 -7 -14 -39 -24 -70 -20 -57 -20 -58 0 -58 10 0 19 5
19 10 0 14 36 13 60 -2 10 -7 21 -10 24 -7 3 3 -4 35 -16 72 -17 50 -27 67
-40 67 -10 0 -21 -6 -23 -12z m35 -64 c0 -8 -6 -14 -14 -14 -9 0 -12 7 -9 20
6 22 23 18 23 -6z"/>
<path d="M4830 430 c0 -73 17 -98 22 -32 2 29 7 37 23 37 16 0 21 -8 23 -37 4
-50 22 -49 22 1 0 43 -19 66 -50 58 -16 -4 -20 0 -20 19 0 13 -4 24 -10 24 -6
0 -10 -30 -10 -70z"/>
<path d="M4995 490 c-3 -5 1 -10 9 -10 9 0 16 5 16 10 0 6 -4 10 -9 10 -6 0
-13 -4 -16 -10z"/>
<path d="M5101 473 c-5 -11 -8 -28 -6 -39 15 -72 16 -74 38 -73 12 0 16 3 10
6 -17 6 -17 70 -1 75 8 3 5 12 -9 27 -21 22 -22 22 -32 4z"/>
<path d="M5560 476 c0 -8 -6 -17 -12 -19 -10 -4 -10 -8 -1 -14 6 -4 13 -24 15
-43 2 -29 7 -35 28 -38 22 -2 23 -1 8 8 -21 13 -24 65 -5 74 10 5 10 7 0 12
-7 3 -13 12 -13 20 0 8 -4 14 -10 14 -5 0 -10 -6 -10 -14z"/>
<path d="M2640 410 c0 -27 5 -50 10 -50 6 0 10 23 10 50 0 28 -4 50 -10 50 -5
0 -10 -22 -10 -50z"/>
<path d="M2746 444 c-32 -32 -11 -84 34 -84 16 0 32 5 35 11 11 16 -3 23 -19
10 -21 -18 -36 -5 -36 30 0 31 25 40 48 17 9 -9 12 -8 12 4 0 29 -49 37 -74
12z"/>
<path d="M2900 408 c0 -26 5 -48 10 -48 6 0 10 15 10 34 0 24 7 38 23 49 22
15 22 15 -10 15 -33 -1 -33 -2 -33 -50z"/>
<path d="M3032 448 c-7 -7 -12 -24 -12 -38 0 -31 17 -50 45 -50 28 0 45 19 45
50 0 31 -17 50 -45 50 -12 0 -26 -5 -33 -12z m56 -40 c-3 -36 -24 -44 -41 -17
-14 23 -2 49 23 49 18 0 21 -5 18 -32z"/>
<path d="M3368 435 c-17 -38 3 -75 41 -75 16 0 33 5 36 11 11 17 -3 23 -20 9
-13 -11 -19 -11 -33 3 -15 16 -14 17 21 17 29 0 37 4 37 18 0 45 -63 59 -82
17z m62 -5 c0 -5 -12 -10 -26 -10 -14 0 -23 4 -19 10 3 6 15 10 26 10 10 0 19
-4 19 -10z"/>
<path d="M3530 408 c0 -26 5 -48 10 -48 6 0 10 15 10 34 0 24 7 38 23 49 22
15 22 15 -10 15 -33 -1 -33 -2 -33 -50z"/>
<path d="M3653 448 c2 -7 10 -30 18 -50 17 -48 34 -48 54 -1 22 52 13 78 -10
28 l-17 -40 -15 38 c-8 20 -20 37 -25 37 -6 0 -8 -6 -5 -12z"/>
<path d="M3820 410 c0 -27 5 -50 10 -50 6 0 10 23 10 50 0 28 -4 50 -10 50 -5
0 -10 -22 -10 -50z"/>
<path d="M3934 452 c-18 -12 -24 -41 -14 -67 7 -19 17 -25 39 -25 16 0 33 5
36 11 11 16 -3 23 -19 10 -21 -18 -36 -5 -36 30 0 31 25 40 48 17 9 -9 12 -8
12 4 0 24 -42 37 -66 20z"/>
<path d="M4093 448 c-32 -41 -18 -88 26 -88 16 0 33 5 36 11 11 16 -3 23 -19
10 -15 -13 -36 -7 -36 10 0 5 16 9 35 9 39 0 46 17 19 44 -19 19 -48 21 -61 4z
m47 -18 c0 -5 -9 -10 -20 -10 -11 0 -20 5 -20 10 0 6 9 10 20 10 11 0 20 -4
20 -10z"/>
<path d="M4540 408 c0 -26 5 -48 10 -48 6 0 10 11 10 24 0 35 10 56 26 56 8 0
14 4 14 9 0 5 -13 9 -30 9 -29 -1 -30 -3 -30 -50z"/>
<path d="M4684 452 c-18 -12 -24 -41 -14 -67 7 -19 17 -25 39 -25 16 0 33 5
36 11 11 16 -3 23 -19 10 -21 -18 -36 -5 -36 30 0 31 25 40 48 17 9 -9 12 -8
12 4 0 24 -42 37 -66 20z"/>
<path d="M4997 453 c-4 -3 -7 -26 -7 -50 0 -32 4 -43 15 -43 11 0 15 12 15 50
0 46 -7 60 -23 43z"/>
<path d="M5228 435 c-17 -38 3 -75 41 -75 16 0 33 5 36 11 11 17 -3 23 -20 9
-13 -11 -19 -11 -33 3 -15 16 -14 17 21 17 29 0 37 4 37 18 0 45 -63 59 -82
17z m62 -5 c0 -5 -9 -10 -20 -10 -11 0 -20 5 -20 10 0 6 9 10 20 10 11 0 20
-4 20 -10z"/>
<path d="M5401 446 c-7 -8 -11 -30 -9 -48 3 -28 7 -33 32 -36 16 -2 33 1 39 7
16 16 0 26 -17 12 -21 -18 -36 -5 -36 30 0 31 25 40 48 17 9 -9 12 -8 12 4 0
28 -49 38 -69 14z"/>
<path d="M5682 413 l3 -48 43 -3 42 -3 0 51 c0 62 -22 65 -30 4 -7 -56 -34
-53 -38 4 -2 23 -8 42 -13 42 -6 0 -9 -21 -7 -47z"/>
<path d="M5844 451 c-2 -2 -4 -24 -4 -48 0 -32 4 -43 15 -43 11 0 15 11 15 40
0 29 4 40 15 40 8 0 15 4 15 10 0 9 -46 10 -56 1z"/>
<path d="M5982 448 c-7 -7 -12 -24 -12 -38 0 -14 5 -31 12 -38 17 -17 53 -15
68 3 10 12 10 15 -3 15 -9 0 -18 -4 -22 -10 -7 -11 -35 -2 -35 11 0 5 16 9 35
9 37 0 42 9 25 41 -12 21 -50 25 -68 7z m53 -18 c4 -6 -5 -10 -19 -10 -14 0
-26 5 -26 10 0 6 9 10 19 10 11 0 23 -4 26 -10z"/>
</g>
</svg>
