<?xml version="1.0" encoding="utf-8"?>
<!-- Generator: Adobe Illustrator 28.1.0, SVG Export Plug-In . SVG Version: 6.00 Build 0)  -->
<svg version="1.1" id="레이어_1" xmlns="http://www.w3.org/2000/svg" xmlns:xlink="http://www.w3.org/1999/xlink" x="0px"
	 y="0px" viewBox="0 0 123 140" style="enable-background:new 0 0 123 140;" xml:space="preserve">
<style type="text/css">
	.st0{fill:#005A9C;}
</style>
<path class="st0" d="M40.5,123.6V57.8l49.8-28.7L79.7,23L29.8,51.7v65.7l-7.2-4.1V47.5l49.8-28.7l-10.6-6.1L12,41.4v65.7L4.8,103
	V37.3L61.7,4.4l42.7,24.7L47.6,61.9v57.5l14.2,8.2l15.5-8.9V96.2l-19.1,11V68.1l56.9-32.9l3.6,2.1V103l-7.2,4.1V76.3l-12.1,7v31
	l-7.2,3.9V56.6l-27,15.6v22.5l19.1-11v39.1l-22.6,13.1L40.5,123.6z M99.5,52.5V75l12.1-7V45.5L99.5,52.5z"/>
</svg>
